<svg width="69" height="69" viewBox="0 0 69 69" fill="none" xmlns="http://www.w3.org/2000/svg">
    <g filter="url(#filter0_f_13_276)">
    <path d="M50.2988 61.2066C49.4534 61.2066 48.608 60.9884 47.8444 60.5248L36.9085 54.0339C35.7631 54.0066 34.6177 53.9251 33.5268 53.7614C32.7905 53.6524 32.1633 53.1612 31.8906 52.4522C31.6178 51.7431 31.7542 50.9795 32.2451 50.4068C34.045 48.3069 34.9722 45.7979 34.9722 43.1253C34.9722 36.5256 29.1634 31.1531 22.0182 31.1531C19.3456 31.1531 16.7821 31.8897 14.6276 33.3079C14.0277 33.6897 13.2913 33.7442 12.6368 33.4442C12.0096 33.1442 11.546 32.544 11.4642 31.8349C11.3824 31.0713 11.3278 30.308 11.3278 29.5171C11.3278 15.9904 23.0545 5 37.4539 5C51.8533 5 63.58 15.9904 63.58 29.5171C63.58 36.935 60.1438 43.7526 54.0895 48.416L55.0168 55.8341C55.2349 57.6885 54.4168 59.4339 52.8623 60.443C52.0987 60.9338 51.1987 61.2066 50.2988 61.2066ZM37.4267 49.9159C37.8085 49.8886 38.1903 49.998 38.5175 50.2162L49.9443 57.0068C50.2442 57.1977 50.4897 57.1158 50.6533 57.0068C50.7897 56.9249 51.0078 56.7068 50.9533 56.325L49.8897 47.7069C49.8079 46.9433 50.1352 46.2073 50.7351 45.7709C56.2985 41.8711 59.4893 35.9256 59.4893 29.4623C59.4893 18.1993 49.617 9.03612 37.4539 9.03612C25.7544 9.03612 16.1548 17.5449 15.4458 28.2353C17.4911 27.4445 19.7002 27.0081 21.991 27.0081C31.3997 27.0081 39.0357 34.2075 39.0357 43.0708C39.0629 45.4707 38.4902 47.7887 37.4267 49.9159Z" fill="#01B2FF"/>
    <path d="M14.0541 63.6066C13.3451 63.6066 12.6633 63.4157 12.036 63.0066C10.8088 62.2157 10.1543 60.8521 10.318 59.4068L10.8634 55.207C7.18172 52.2071 5 47.7618 5 43.0984C5 37.7805 7.78172 32.8171 12.4451 29.8445C15.2541 28.0173 18.5812 27.0356 22.0447 27.0356C31.4534 27.0356 39.0894 34.2352 39.0894 43.0984C39.0894 46.6983 37.7804 50.2436 35.3805 53.0525C32.2988 56.7887 27.6899 58.9704 22.6174 59.134L15.9631 63.0884C15.3632 63.4429 14.7086 63.6066 14.0541 63.6066ZM22.0174 31.1263C19.3448 31.1263 16.7812 31.8626 14.6268 33.2807C11.1361 35.517 9.06345 39.1713 9.06345 43.0984C9.06345 46.8892 10.9179 50.3526 14.1905 52.5889C14.8178 53.0252 15.145 53.7616 15.0632 54.5252L14.4632 59.1886L20.9811 55.316C21.3083 55.1251 21.6629 55.0161 22.0174 55.0161C26.0263 55.0161 29.8171 53.298 32.217 50.3799C34.0169 48.2527 34.9714 45.7438 34.9714 43.0712C34.9714 36.4987 29.1626 31.1263 22.0174 31.1263Z" fill="#01B2FF"/>
    </g>
    <path d="M50.2988 61.2066C49.4534 61.2066 48.608 60.9884 47.8444 60.5248L36.9085 54.0339C35.7631 54.0066 34.6177 53.9251 33.5268 53.7614C32.7905 53.6524 32.1633 53.1612 31.8906 52.4522C31.6178 51.7431 31.7542 50.9795 32.2451 50.4068C34.045 48.3069 34.9722 45.7979 34.9722 43.1253C34.9722 36.5256 29.1634 31.1531 22.0182 31.1531C19.3456 31.1531 16.7821 31.8897 14.6276 33.3079C14.0277 33.6897 13.2913 33.7442 12.6368 33.4442C12.0096 33.1442 11.546 32.544 11.4642 31.8349C11.3824 31.0713 11.3278 30.308 11.3278 29.5171C11.3278 15.9904 23.0545 5 37.4539 5C51.8533 5 63.58 15.9904 63.58 29.5171C63.58 36.935 60.1438 43.7526 54.0895 48.416L55.0168 55.8341C55.2349 57.6885 54.4168 59.4339 52.8623 60.443C52.0987 60.9338 51.1987 61.2066 50.2988 61.2066ZM37.4267 49.9159C37.8085 49.8886 38.1903 49.998 38.5175 50.2162L49.9443 57.0068C50.2442 57.1977 50.4897 57.1158 50.6533 57.0068C50.7897 56.9249 51.0078 56.7068 50.9533 56.325L49.8897 47.7069C49.8079 46.9433 50.1352 46.2073 50.7351 45.7709C56.2985 41.8711 59.4893 35.9256 59.4893 29.4623C59.4893 18.1993 49.617 9.03612 37.4539 9.03612C25.7544 9.03612 16.1548 17.5449 15.4458 28.2353C17.4911 27.4445 19.7002 27.0081 21.991 27.0081C31.3997 27.0081 39.0357 34.2075 39.0357 43.0708C39.0629 45.4707 38.4902 47.7887 37.4267 49.9159Z" fill="#01B2FF"/>
    <path d="M14.0541 63.6066C13.3451 63.6066 12.6633 63.4157 12.036 63.0066C10.8088 62.2157 10.1543 60.8521 10.318 59.4068L10.8634 55.207C7.18172 52.2071 5 47.7618 5 43.0984C5 37.7805 7.78172 32.8171 12.4451 29.8445C15.2541 28.0173 18.5812 27.0356 22.0447 27.0356C31.4534 27.0356 39.0894 34.2352 39.0894 43.0984C39.0894 46.6983 37.7804 50.2436 35.3805 53.0525C32.2988 56.7887 27.6899 58.9704 22.6174 59.134L15.9631 63.0884C15.3632 63.4429 14.7086 63.6066 14.0541 63.6066ZM22.0174 31.1263C19.3448 31.1263 16.7812 31.8626 14.6268 33.2807C11.1361 35.517 9.06345 39.1713 9.06345 43.0984C9.06345 46.8892 10.9179 50.3526 14.1905 52.5889C14.8178 53.0252 15.145 53.7616 15.0632 54.5252L14.4632 59.1886L20.9811 55.316C21.3083 55.1251 21.6629 55.0161 22.0174 55.0161C26.0263 55.0161 29.8171 53.298 32.217 50.3799C34.0169 48.2527 34.9714 45.7438 34.9714 43.0712C34.9714 36.4987 29.1626 31.1263 22.0174 31.1263Z" fill="#01B2FF"/>
    <defs>
    <filter id="filter0_f_13_276" x="0" y="0" width="68.58" height="68.6066" filterUnits="userSpaceOnUse" color-interpolation-filters="sRGB">
    <feFlood flood-opacity="0" result="BackgroundImageFix"/>
    <feBlend mode="normal" in="SourceGraphic" in2="BackgroundImageFix" result="shape"/>
    <feGaussianBlur stdDeviation="2.5" result="effect1_foregroundBlur_13_276"/>
    </filter>
    </defs>
    </svg>
    