<svg width="231" height="231" viewBox="0 0 231 231" fill="none" xmlns="http://www.w3.org/2000/svg">
    <g filter="url(#filter0_f_13_226)">
    <circle cx="115.309" cy="115.309" r="100" transform="rotate(-9.62256 115.309 115.309)" fill="#01B2FF"/>
    </g>
    <circle cx="115.309" cy="115.309" r="100" transform="rotate(-9.62256 115.309 115.309)" fill="#01B2FF"/>
    <g clip-path="url(#clip0_13_226)">
    <path d="M156.459 62.5227C146.827 59.9373 136.731 58.5409 126.417 58.5094C126.229 58.5069 126.061 58.6213 125.995 58.8041C125.134 61.2053 124.254 64.2966 123.679 66.7066C112.628 66.9203 101.906 68.7381 91.6228 72.1415C90.2771 70.0056 88.3858 67.4357 86.7761 65.4534C86.6548 65.308 86.4582 65.2555 86.2806 65.3142C76.5582 68.737 67.4868 73.383 59.2404 79.0054C59.1687 79.0519 59.1118 79.1188 59.0799 79.1986C45.5062 109.438 45.0177 136.773 51.8961 162.52C51.9288 162.646 52.0214 162.757 52.1341 162.818C65.6208 169.592 78.1449 172.969 90.1479 174.58C90.3397 174.605 90.5218 174.506 90.6124 174.336C92.6851 170.195 94.4308 165.904 95.8 161.47C95.881 161.21 95.7168 160.946 95.4521 160.894C91.3932 160.094 87.463 158.946 83.6304 157.535C83.3267 157.42 83.2376 157.029 83.4598 156.797C84.1015 156.121 84.7394 155.424 85.3432 154.726C85.4524 154.599 85.6255 154.546 85.786 154.588C110.51 161.174 135.354 156.962 156.254 142.641C156.391 142.543 156.572 142.535 156.722 142.618C157.522 143.078 158.356 143.532 159.19 143.957C159.476 144.103 159.526 144.501 159.277 144.71C156.13 147.344 152.792 149.684 149.217 151.773C148.984 151.91 148.923 152.218 149.085 152.436C151.882 156.158 154.945 159.634 158.217 162.868C158.354 163.005 158.564 163.038 158.737 162.952C169.593 157.465 180.304 150.148 190.804 139.307C190.896 139.211 190.943 139.083 190.932 138.954C188.728 108.212 176.453 83.2649 156.67 62.6587C156.618 62.5874 156.542 62.543 156.459 62.5227ZM95.4722 138.745C88.5635 139.916 81.7954 134.538 80.4748 126.749C79.1541 118.959 83.6609 111.67 90.6801 110.48C97.7545 109.28 104.477 114.723 105.678 122.476C106.998 130.265 102.491 137.555 95.4722 138.745ZM142.064 130.845C135.155 132.017 128.387 126.639 127.067 118.849C125.746 111.06 130.253 103.77 137.272 102.58C144.346 101.381 151.069 106.824 152.269 114.576C153.59 122.366 149.139 129.646 142.064 130.845Z" fill="white"/>
    </g>
    <defs>
    <filter id="filter0_f_13_226" x="0.292725" y="0.292786" width="230.032" height="230.032" filterUnits="userSpaceOnUse" color-interpolation-filters="sRGB">
    <feFlood flood-opacity="0" result="BackgroundImageFix"/>
    <feBlend mode="normal" in="SourceGraphic" in2="BackgroundImageFix" result="shape"/>
    <feGaussianBlur stdDeviation="7.5" result="effect1_foregroundBlur_13_226"/>
    </filter>
    <clipPath id="clip0_13_226">
    <rect width="141.717" height="141.717" fill="white" transform="translate(33.4396 57.1758) rotate(-9.62256)"/>
    </clipPath>
    </defs>
    </svg>
    