<svg width="69" height="62" viewBox="0 0 69 62" fill="none" xmlns="http://www.w3.org/2000/svg">
    <g filter="url(#filter0_f_13_267)">
    <path d="M20.7935 40.7229C20.4031 40.7229 20.0128 40.6328 19.6525 40.4226L6.14094 32.616C5.45035 32.2256 5 31.475 5 30.6643V15.0511C5 14.2404 5.42033 13.4897 6.14094 13.0994L19.6525 5.29275C20.3431 4.90242 21.2138 4.90242 21.9044 5.29275L35.4159 13.0994C36.1065 13.4897 36.5568 14.2404 36.5568 15.0511V19.7651C36.5568 20.9962 35.536 22.017 34.3049 22.017C33.0739 22.017 32.053 20.9962 32.053 19.7651V16.3422L20.7935 9.82665L9.53387 16.3422V29.3432L20.7935 35.8588L33.164 28.7126C34.2449 28.0821 35.626 28.4724 36.2266 29.5233C36.8571 30.6043 36.4668 31.9854 35.4159 32.586L21.9044 40.3926C21.5741 40.6028 21.1838 40.7229 20.7935 40.7229Z" fill="#01B2FF"/>
    <path d="M47.8164 56.3054C47.4261 56.3054 47.0357 56.2153 46.6754 56.0051L33.1639 48.1985C32.4733 47.8081 32.0229 47.0575 32.0229 46.2468V41.2926C32.0229 40.0615 33.0438 39.0407 34.2748 39.0407C35.5059 39.0407 36.5268 40.0615 36.5268 41.2926V44.9557L47.7864 51.4713L59.046 44.9557V31.9546L47.7864 25.439L35.4158 32.5851C34.3349 33.2157 32.9537 32.8254 32.3532 31.7745C31.7227 30.6935 32.113 29.3124 33.1639 28.7118L46.6754 20.9053C47.366 20.515 48.2368 20.515 48.9273 20.9053L62.4389 28.7118C63.1295 29.1022 63.5799 29.8528 63.5799 30.6635V46.2768C63.5799 47.0875 63.1595 47.8382 62.4389 48.2285L48.9273 56.0352C48.5971 56.2153 48.2067 56.3054 47.8164 56.3054Z" fill="#01B2FF"/>
    </g>
    <path d="M20.7935 40.7229C20.4031 40.7229 20.0128 40.6328 19.6525 40.4226L6.14094 32.616C5.45035 32.2256 5 31.475 5 30.6643V15.0511C5 14.2404 5.42033 13.4897 6.14094 13.0994L19.6525 5.29275C20.3431 4.90242 21.2138 4.90242 21.9044 5.29275L35.4159 13.0994C36.1065 13.4897 36.5568 14.2404 36.5568 15.0511V19.7651C36.5568 20.9962 35.536 22.017 34.3049 22.017C33.0739 22.017 32.053 20.9962 32.053 19.7651V16.3422L20.7935 9.82665L9.53387 16.3422V29.3432L20.7935 35.8588L33.164 28.7126C34.2449 28.0821 35.626 28.4724 36.2266 29.5233C36.8571 30.6043 36.4668 31.9854 35.4159 32.586L21.9044 40.3926C21.5741 40.6028 21.1838 40.7229 20.7935 40.7229Z" fill="#01B2FF"/>
    <path d="M47.8164 56.3054C47.4261 56.3054 47.0357 56.2153 46.6754 56.0051L33.1639 48.1985C32.4733 47.8081 32.0229 47.0575 32.0229 46.2468V41.2926C32.0229 40.0615 33.0438 39.0407 34.2748 39.0407C35.5059 39.0407 36.5268 40.0615 36.5268 41.2926V44.9557L47.7864 51.4713L59.046 44.9557V31.9546L47.7864 25.439L35.4158 32.5851C34.3349 33.2157 32.9537 32.8254 32.3532 31.7745C31.7227 30.6935 32.113 29.3124 33.1639 28.7118L46.6754 20.9053C47.366 20.515 48.2368 20.515 48.9273 20.9053L62.4389 28.7118C63.1295 29.1022 63.5799 29.8528 63.5799 30.6635V46.2768C63.5799 47.0875 63.1595 47.8382 62.4389 48.2285L48.9273 56.0352C48.5971 56.2153 48.2067 56.3054 47.8164 56.3054Z" fill="#01B2FF"/>
    <defs>
    <filter id="filter0_f_13_267" x="0" y="0" width="68.5799" height="61.3054" filterUnits="userSpaceOnUse" color-interpolation-filters="sRGB">
    <feFlood flood-opacity="0" result="BackgroundImageFix"/>
    <feBlend mode="normal" in="SourceGraphic" in2="BackgroundImageFix" result="shape"/>
    <feGaussianBlur stdDeviation="2.5" result="effect1_foregroundBlur_13_267"/>
    </filter>
    </defs>
    </svg>
    