<svg width="69" height="47" viewBox="0 0 69 47" fill="none" xmlns="http://www.w3.org/2000/svg">
    <g filter="url(#filter0_f_13_300)">
    <path d="M34.2926 29.8788C37.8739 29.8788 40.7772 26.9755 40.7772 23.3942C40.7772 19.813 37.8739 16.9096 34.2926 16.9096C30.7114 16.9096 27.808 19.813 27.808 23.3942C27.808 26.9755 30.7114 29.8788 34.2926 29.8788Z" fill="#01B2FF"/>
    <path d="M56.0873 41.7832C55.6513 41.7832 55.2426 41.6469 54.8612 41.3745C53.9621 40.6933 53.7713 39.4127 54.4525 38.5136C57.7493 34.127 59.493 28.8957 59.493 23.392C59.493 17.8882 57.7493 12.6569 54.4525 8.27028C53.7713 7.37116 53.9621 6.09059 54.8612 5.40944C55.7603 4.72828 57.0409 4.91901 57.722 5.81813C61.5637 10.9132 63.58 16.9891 63.58 23.392C63.58 29.7948 61.5637 35.8707 57.722 40.9658C57.3133 41.5107 56.7139 41.7832 56.0873 41.7832Z" fill="#01B2FF"/>
    <path d="M12.4927 41.7832C11.866 41.7832 11.2666 41.5107 10.8579 40.9658C7.01622 35.8707 5 29.7948 5 23.392C5 16.9891 7.01622 10.9132 10.8579 5.81813C11.5391 4.91901 12.8196 4.72828 13.7188 5.40944C14.6179 6.09059 14.8086 7.37116 14.1275 8.27028C10.8307 12.6569 9.08693 17.8882 9.08693 23.392C9.08693 28.8957 10.8307 34.127 14.1275 38.5136C14.8086 39.4127 14.6179 40.6933 13.7188 41.3745C13.3646 41.6469 12.9286 41.7832 12.4927 41.7832Z" fill="#01B2FF"/>
    <path d="M47.3707 35.2398C46.9347 35.2398 46.526 35.1036 46.1446 34.8311C45.2455 34.1499 45.0547 32.8694 45.7359 31.9703C47.6159 29.4909 48.5967 26.521 48.5967 23.3877C48.5967 20.2544 47.6159 17.2846 45.7359 14.8052C45.0547 13.9061 45.2455 12.6255 46.1446 11.9443C47.0437 11.2632 48.3243 11.4539 49.0054 12.353C51.4031 15.5681 52.6837 19.3825 52.6837 23.3877C52.6837 27.3929 51.4031 31.2346 49.0054 34.4224C48.5967 34.9673 47.9973 35.2398 47.3707 35.2398Z" fill="#01B2FF"/>
    <path d="M21.2114 35.2398C20.5848 35.2398 19.9854 34.9673 19.5767 34.4224C17.179 31.2346 15.8984 27.3929 15.8984 23.3877C15.8984 19.3825 17.179 15.5408 19.5767 12.353C20.2578 11.4539 21.5384 11.2632 22.4375 11.9443C23.3366 12.6255 23.5274 13.9061 22.8462 14.8052C20.9662 17.2846 19.9854 20.2544 19.9854 23.3877C19.9854 26.521 20.9662 29.4909 22.8462 31.9703C23.5274 32.8694 23.3366 34.1499 22.4375 34.8311C22.0833 35.1036 21.6474 35.2398 21.2114 35.2398Z" fill="#01B2FF"/>
    </g>
    <path d="M34.2926 29.8788C37.8739 29.8788 40.7772 26.9755 40.7772 23.3942C40.7772 19.813 37.8739 16.9096 34.2926 16.9096C30.7114 16.9096 27.808 19.813 27.808 23.3942C27.808 26.9755 30.7114 29.8788 34.2926 29.8788Z" fill="#01B2FF"/>
    <path d="M56.0873 41.7832C55.6513 41.7832 55.2426 41.6469 54.8612 41.3745C53.9621 40.6933 53.7713 39.4127 54.4525 38.5136C57.7493 34.127 59.493 28.8957 59.493 23.392C59.493 17.8882 57.7493 12.6569 54.4525 8.27028C53.7713 7.37116 53.9621 6.09059 54.8612 5.40944C55.7603 4.72828 57.0409 4.91901 57.722 5.81813C61.5637 10.9132 63.58 16.9891 63.58 23.392C63.58 29.7948 61.5637 35.8707 57.722 40.9658C57.3133 41.5107 56.7139 41.7832 56.0873 41.7832Z" fill="#01B2FF"/>
    <path d="M12.4927 41.7832C11.866 41.7832 11.2666 41.5107 10.8579 40.9658C7.01622 35.8707 5 29.7948 5 23.392C5 16.9891 7.01622 10.9132 10.8579 5.81813C11.5391 4.91901 12.8196 4.72828 13.7188 5.40944C14.6179 6.09059 14.8086 7.37116 14.1275 8.27028C10.8307 12.6569 9.08693 17.8882 9.08693 23.392C9.08693 28.8957 10.8307 34.127 14.1275 38.5136C14.8086 39.4127 14.6179 40.6933 13.7188 41.3745C13.3646 41.6469 12.9286 41.7832 12.4927 41.7832Z" fill="#01B2FF"/>
    <path d="M47.3707 35.2398C46.9347 35.2398 46.526 35.1036 46.1446 34.8311C45.2455 34.1499 45.0547 32.8694 45.7359 31.9703C47.6159 29.4909 48.5967 26.521 48.5967 23.3877C48.5967 20.2544 47.6159 17.2846 45.7359 14.8052C45.0547 13.9061 45.2455 12.6255 46.1446 11.9443C47.0437 11.2632 48.3243 11.4539 49.0054 12.353C51.4031 15.5681 52.6837 19.3825 52.6837 23.3877C52.6837 27.3929 51.4031 31.2346 49.0054 34.4224C48.5967 34.9673 47.9973 35.2398 47.3707 35.2398Z" fill="#01B2FF"/>
    <path d="M21.2114 35.2398C20.5848 35.2398 19.9854 34.9673 19.5767 34.4224C17.179 31.2346 15.8984 27.3929 15.8984 23.3877C15.8984 19.3825 17.179 15.5408 19.5767 12.353C20.2578 11.4539 21.5384 11.2632 22.4375 11.9443C23.3366 12.6255 23.5274 13.9061 22.8462 14.8052C20.9662 17.2846 19.9854 20.2544 19.9854 23.3877C19.9854 26.521 20.9662 29.4909 22.8462 31.9703C23.5274 32.8694 23.3366 34.1499 22.4375 34.8311C22.0833 35.1036 21.6474 35.2398 21.2114 35.2398Z" fill="#01B2FF"/>
    <defs>
    <filter id="filter0_f_13_300" x="0" y="0" width="68.58" height="46.7831" filterUnits="userSpaceOnUse" color-interpolation-filters="sRGB">
    <feFlood flood-opacity="0" result="BackgroundImageFix"/>
    <feBlend mode="normal" in="SourceGraphic" in2="BackgroundImageFix" result="shape"/>
    <feGaussianBlur stdDeviation="2.5" result="effect1_foregroundBlur_13_300"/>
    </filter>
    </defs>
    </svg>
    