<svg width="73" height="73" viewBox="0 0 73 73" fill="none" xmlns="http://www.w3.org/2000/svg">
    <g filter="url(#filter0_f_13_315)">
    <path d="M53.9407 22.1401C53.7647 22.1108 53.5593 22.1108 53.3832 22.1401C49.3341 21.9934 46.1066 18.6779 46.1066 14.5701C46.1066 10.3743 49.4808 7 53.6766 7C57.8725 7 61.2467 10.4036 61.2467 14.5701C61.2174 18.6779 57.9898 21.9934 53.9407 22.1401Z" stroke="#01B2FF" stroke-width="4" stroke-linecap="round" stroke-linejoin="round"/>
    <path d="M50.9166 43.4995C54.9364 44.1744 59.3669 43.4702 62.4771 41.3869C66.6142 38.6288 66.6142 34.1103 62.4771 31.3522C59.3376 29.269 54.8483 28.5648 50.8286 29.269" stroke="#01B2FF" stroke-width="4" stroke-linecap="round" stroke-linejoin="round"/>
    <path d="M18.6385 22.1401C18.8145 22.1108 19.0199 22.1108 19.1959 22.1401C23.245 21.9934 26.4726 18.6779 26.4726 14.5701C26.4726 10.3743 23.0983 7 18.9025 7C14.7067 7 11.3325 10.4036 11.3325 14.5701C11.3618 18.6779 14.5893 21.9934 18.6385 22.1401Z" stroke="#01B2FF" stroke-width="4" stroke-linecap="round" stroke-linejoin="round"/>
    <path d="M21.6633 43.4995C17.6436 44.1744 13.213 43.4702 10.1028 41.3869C5.96572 38.6288 5.96572 34.1103 10.1028 31.3522C13.2424 29.269 17.7316 28.5648 21.7514 29.269" stroke="#01B2FF" stroke-width="4" stroke-linecap="round" stroke-linejoin="round"/>
    <path d="M36.3358 44.0575C36.1597 44.0281 35.9543 44.0281 35.7783 44.0575C31.7292 43.9108 28.5016 40.5952 28.5016 36.4874C28.5016 32.2916 31.8759 28.9172 36.0717 28.9172C40.2675 28.9172 43.6418 32.3209 43.6418 36.4874C43.6124 40.5952 40.3849 43.9401 36.3358 44.0575Z" stroke="#01B2FF" stroke-width="4" stroke-linecap="round" stroke-linejoin="round"/>
    <path d="M44.876 53.3001C40.2108 50.1899 32.494 50.1899 27.7994 53.3001C23.6623 56.0582 23.6623 60.5768 27.7994 63.3348C32.494 66.4744 40.1814 66.4744 44.876 63.3348" stroke="#01B2FF" stroke-width="4" stroke-linecap="round" stroke-linejoin="round"/>
    </g>
    <path d="M53.9407 22.1401C53.7647 22.1108 53.5593 22.1108 53.3832 22.1401C49.3341 21.9934 46.1066 18.6779 46.1066 14.5701C46.1066 10.3743 49.4808 7 53.6766 7C57.8725 7 61.2467 10.4036 61.2467 14.5701C61.2174 18.6779 57.9898 21.9934 53.9407 22.1401Z" stroke="#01B2FF" stroke-width="4" stroke-linecap="round" stroke-linejoin="round"/>
    <path d="M50.9166 43.4995C54.9364 44.1744 59.3669 43.4702 62.4771 41.3869C66.6142 38.6288 66.6142 34.1103 62.4771 31.3522C59.3376 29.269 54.8483 28.5648 50.8286 29.269" stroke="#01B2FF" stroke-width="4" stroke-linecap="round" stroke-linejoin="round"/>
    <path d="M18.6385 22.1401C18.8145 22.1108 19.0199 22.1108 19.1959 22.1401C23.245 21.9934 26.4726 18.6779 26.4726 14.5701C26.4726 10.3743 23.0983 7 18.9025 7C14.7067 7 11.3325 10.4036 11.3325 14.5701C11.3618 18.6779 14.5893 21.9934 18.6385 22.1401Z" stroke="#01B2FF" stroke-width="4" stroke-linecap="round" stroke-linejoin="round"/>
    <path d="M21.6633 43.4995C17.6436 44.1744 13.213 43.4702 10.1028 41.3869C5.96572 38.6288 5.96572 34.1103 10.1028 31.3522C13.2424 29.269 17.7316 28.5648 21.7514 29.269" stroke="#01B2FF" stroke-width="4" stroke-linecap="round" stroke-linejoin="round"/>
    <path d="M36.3358 44.0575C36.1597 44.0281 35.9543 44.0281 35.7783 44.0575C31.7292 43.9108 28.5016 40.5952 28.5016 36.4874C28.5016 32.2916 31.8759 28.9172 36.0717 28.9172C40.2675 28.9172 43.6418 32.3209 43.6418 36.4874C43.6124 40.5952 40.3849 43.9401 36.3358 44.0575Z" stroke="#01B2FF" stroke-width="4" stroke-linecap="round" stroke-linejoin="round"/>
    <path d="M44.876 53.3001C40.2108 50.1899 32.494 50.1899 27.7994 53.3001C23.6623 56.0582 23.6623 60.5768 27.7994 63.3348C32.494 66.4744 40.1814 66.4744 44.876 63.3348" stroke="#01B2FF" stroke-width="4" stroke-linecap="round" stroke-linejoin="round"/>
    <defs>
    <filter id="filter0_f_13_315" x="0" y="0" width="72.58" height="72.6895" filterUnits="userSpaceOnUse" color-interpolation-filters="sRGB">
    <feFlood flood-opacity="0" result="BackgroundImageFix"/>
    <feBlend mode="normal" in="SourceGraphic" in2="BackgroundImageFix" result="shape"/>
    <feGaussianBlur stdDeviation="2.5" result="effect1_foregroundBlur_13_315"/>
    </filter>
    </defs>
    </svg>
    