<svg width="53" height="40" viewBox="0 0 53 40" fill="none" xmlns="http://www.w3.org/2000/svg">
    <path d="M44.3222 3.69037C41.0443 2.18634 37.5293 1.07824 33.8541 0.44358C33.7872 0.431332 33.7203 0.461942 33.6859 0.523163C33.2338 1.3272 32.733 2.37612 32.3824 3.20057C28.4295 2.60878 24.4969 2.60878 20.625 3.20057C20.2743 2.3578 19.7554 1.3272 19.3013 0.523163C19.2668 0.463984 19.1999 0.433374 19.133 0.44358C15.4599 1.07621 11.9448 2.18431 8.66491 3.69037C8.63652 3.70262 8.61218 3.72304 8.59603 3.74955C1.92875 13.7103 0.102302 23.4263 0.998295 33.0218C1.00235 33.0687 1.0287 33.1136 1.06519 33.1421C5.46407 36.3726 9.72514 38.3337 13.9071 39.6337C13.974 39.6541 14.0449 39.6296 14.0875 39.5745C15.0768 38.2236 15.9586 36.7991 16.7146 35.3012C16.7593 35.2135 16.7167 35.1094 16.6255 35.0747C15.2268 34.5441 13.8949 33.8972 12.6138 33.1626C12.5124 33.1034 12.5043 32.9584 12.5975 32.8891C12.8671 32.687 13.1368 32.4768 13.3942 32.2646C13.4408 32.2258 13.5057 32.2177 13.5605 32.2421C21.9771 36.0849 31.0891 36.0849 39.4064 32.2421C39.4611 32.2156 39.526 32.2238 39.5746 32.2626C39.8321 32.4748 40.1017 32.687 40.3734 32.8891C40.4666 32.9584 40.4605 33.1034 40.3592 33.1626C39.078 33.9115 37.7462 34.5441 36.3454 35.0727C36.2542 35.1074 36.2137 35.2135 36.2583 35.3012C37.0306 36.797 37.9124 38.2215 38.8834 39.5725C38.924 39.6296 38.9969 39.6541 39.0638 39.6337C43.2661 38.3337 47.5271 36.3726 51.926 33.1421C51.9645 33.1136 51.9888 33.0707 51.9929 33.0238C53.0652 21.9303 50.1968 12.2941 44.3891 3.75158C44.3749 3.72304 44.3506 3.70262 44.3222 3.69037ZM17.9715 27.1791C15.4375 27.1791 13.3496 24.8527 13.3496 21.9957C13.3496 19.1386 15.3971 16.8123 17.9715 16.8123C20.5662 16.8123 22.6339 19.1591 22.5934 21.9957C22.5934 24.8527 20.5459 27.1791 17.9715 27.1791ZM35.0602 27.1791C32.5263 27.1791 30.4384 24.8527 30.4384 21.9957C30.4384 19.1386 32.4858 16.8123 35.0602 16.8123C37.655 16.8123 39.7226 19.1591 39.6821 21.9957C39.6821 24.8527 37.655 27.1791 35.0602 27.1791Z" fill="white"/>
    </svg>
    