<svg width="53" height="53" viewBox="0 0 53 53" fill="none" xmlns="http://www.w3.org/2000/svg">
    <path d="M26.5001 5.41622C33.3706 5.41622 34.1842 5.44636 36.8862 5.56689C39.3974 5.67739 40.7534 6.09926 41.6574 6.45082C42.8527 6.91288 43.7166 7.47538 44.6105 8.36935C45.5146 9.27337 46.067 10.1272 46.5291 11.3225C46.8806 12.2265 47.3025 13.5926 47.413 16.0937C47.5335 18.8057 47.5637 19.6193 47.5637 26.4798C47.5637 33.3504 47.5335 34.164 47.413 36.866C47.3025 39.3772 46.8806 40.7332 46.5291 41.6372C46.067 42.8325 45.5045 43.6964 44.6105 44.5903C43.7065 45.4944 42.8527 46.0468 41.6574 46.5089C40.7534 46.8604 39.3873 47.2823 36.8862 47.3928C34.1742 47.5133 33.3605 47.5435 26.5001 47.5435C19.6295 47.5435 18.8159 47.5133 16.1139 47.3928C13.6027 47.2823 12.2467 46.8604 11.3427 46.5089C10.1474 46.0468 9.28353 45.4843 8.38956 44.5903C7.48554 43.6863 6.93309 42.8325 6.47103 41.6372C6.11947 40.7332 5.6976 39.3671 5.58711 36.866C5.46657 34.154 5.43644 33.3403 5.43644 26.4798C5.43644 19.6093 5.46657 18.7957 5.58711 16.0937C5.6976 13.5825 6.11947 12.2265 6.47103 11.3225C6.93309 10.1272 7.49559 9.26332 8.38956 8.36935C9.29358 7.46533 10.1474 6.91288 11.3427 6.45082C12.2467 6.09926 13.6128 5.67739 16.1139 5.56689C18.8159 5.44636 19.6295 5.41622 26.5001 5.41622ZM26.5001 0.785645C19.519 0.785645 18.6451 0.815778 15.903 0.936314C13.1708 1.05685 11.2925 1.49881 9.66523 2.13163C7.96769 2.79457 6.5313 3.66846 5.10496 5.10484C3.66858 6.53118 2.7947 7.96756 2.13175 9.65506C1.49894 11.2923 1.05697 13.1606 0.936436 15.8928C0.815901 18.645 0.785767 19.5189 0.785767 26.4999C0.785767 33.481 0.815901 34.3548 0.936436 37.097C1.05697 39.8292 1.49894 41.7075 2.13175 43.3348C2.7947 45.0323 3.66858 46.4687 5.10496 47.895C6.5313 49.3214 7.96769 50.2053 9.65519 50.8582C11.2925 51.491 13.1608 51.933 15.8929 52.0535C18.6351 52.174 19.509 52.2042 26.49 52.2042C33.471 52.2042 34.3449 52.174 37.0871 52.0535C39.8193 51.933 41.6976 51.491 43.3248 50.8582C45.0123 50.2053 46.4487 49.3214 47.8751 47.895C49.3014 46.4687 50.1853 45.0323 50.8382 43.3448C51.471 41.7075 51.913 39.8392 52.0335 37.1071C52.1541 34.3649 52.1842 33.491 52.1842 26.51C52.1842 19.5289 52.1541 18.6551 52.0335 15.9129C51.913 13.1807 51.471 11.3024 50.8382 9.67515C50.2054 7.96756 49.3315 6.53118 47.8951 5.10484C46.4688 3.6785 45.0324 2.79457 43.3449 2.14167C41.7076 1.50886 39.8393 1.06689 37.1072 0.946359C34.355 0.815778 33.4811 0.785645 26.5001 0.785645Z" fill="white"/>
    <path d="M26.5001 13.291C19.2077 13.291 13.2914 19.2073 13.2914 26.4997C13.2914 33.7921 19.2077 39.7084 26.5001 39.7084C33.7925 39.7084 39.7088 33.7921 39.7088 26.4997C39.7088 19.2073 33.7925 13.291 26.5001 13.291ZM26.5001 35.0678C21.7691 35.0678 17.932 31.2307 17.932 26.4997C17.932 21.7687 21.7691 17.9316 26.5001 17.9316C31.2311 17.9316 35.0682 21.7687 35.0682 26.4997C35.0682 31.2307 31.2311 35.0678 26.5001 35.0678Z" fill="white"/>
    <path d="M43.3147 12.7688C43.3147 14.4764 41.9286 15.8525 40.231 15.8525C38.5235 15.8525 37.1473 14.4663 37.1473 12.7688C37.1473 11.0612 38.5335 9.68506 40.231 9.68506C41.9286 9.68506 43.3147 11.0712 43.3147 12.7688Z" fill="white"/>
    </svg>
    