<svg width="41" height="35" viewBox="0 0 41 35" fill="none" xmlns="http://www.w3.org/2000/svg">
    <path fill-rule="evenodd" clip-rule="evenodd" d="M2.97468 15.1043C13.9067 10.3414 21.1964 7.20144 24.8438 5.68435C35.258 1.35275 37.422 0.600306 38.8324 0.57546C39.1426 0.569996 39.8362 0.646876 40.2855 1.01145C40.6649 1.31928 40.7693 1.73513 40.8192 2.02699C40.8692 2.31886 40.9314 2.98373 40.882 3.50324C40.3176 9.43287 37.8757 23.8225 36.6334 30.4638C36.1077 33.274 35.0727 34.2162 34.0706 34.3084C31.8929 34.5088 30.2393 32.8693 28.1301 31.4867C24.8296 29.3231 22.965 27.9763 19.7613 25.8652C16.0589 23.4253 18.459 22.0843 20.569 19.8928C21.1212 19.3193 30.7162 10.5919 30.9019 9.80021C30.9251 9.70119 30.9467 9.33211 30.7274 9.13722C30.5081 8.94233 30.1845 9.00897 29.951 9.06197C29.62 9.1371 24.3474 12.6221 14.1333 19.5169C12.6367 20.5446 11.2811 21.0453 10.0665 21.019C8.7276 20.9901 6.15201 20.262 4.23732 19.6396C1.88888 18.8762 0.0223851 18.4726 0.184915 17.1761C0.26957 16.5009 1.19949 15.8103 2.97468 15.1043Z" fill="white"/>
    </svg>
    