<svg width="53" height="37" viewBox="0 0 53 37" fill="none" xmlns="http://www.w3.org/2000/svg">
    <path d="M51.7021 8.21436C51.7021 8.21436 51.1998 4.6686 49.653 3.11168C47.6942 1.06257 45.5045 1.05252 44.5001 0.931989C37.3081 0.409668 26.5101 0.409668 26.5101 0.409668H26.49C26.49 0.409668 15.692 0.409668 8.50005 0.931989C7.49559 1.05252 5.30586 1.06257 3.34715 3.11168C1.80028 4.6686 1.30809 8.21436 1.30809 8.21436C1.30809 8.21436 0.785767 12.3829 0.785767 16.5414V20.4387C0.785767 24.5972 1.29804 28.7657 1.29804 28.7657C1.29804 28.7657 1.80028 32.3115 3.33711 33.8684C5.29581 35.9175 7.86724 35.8472 9.01233 36.0681C13.1306 36.4599 26.5001 36.5804 26.5001 36.5804C26.5001 36.5804 37.3081 36.5603 44.5001 36.0481C45.5045 35.9275 47.6942 35.9175 49.653 33.8684C51.1998 32.3115 51.7021 28.7657 51.7021 28.7657C51.7021 28.7657 52.2143 24.6072 52.2143 20.4387V16.5414C52.2143 12.3829 51.7021 8.21436 51.7021 8.21436ZM21.1864 25.1697V10.7155L35.0782 17.9677L21.1864 25.1697Z" fill="white"/>
    </svg>
    