<svg width="91" height="950" viewBox="0 0 91 950" fill="none" xmlns="http://www.w3.org/2000/svg">
    <line x1="45.5" y1="84" x2="45.5" y2="906.002" stroke="#01B2FF" stroke-width="5"/>
    <circle cx="45" cy="45" r="45" fill="white"/>
    <circle cx="46" cy="235" r="45" fill="white"/>
    <circle cx="45" cy="425" r="45" fill="white"/>
    <circle cx="45" cy="585" r="45" fill="white"/>
    <circle cx="45" cy="745" r="45" fill="white"/>
    <circle cx="45" cy="905" r="45" fill="white"/>
    <g filter="url(#filter0_f_13_239)">
    <path d="M74.5753 759.23V723.88C74.5753 720.365 71.7051 717.759 68.2199 718.052H68.0442C61.8938 718.579 52.551 721.712 47.3378 724.993L46.8399 725.315C45.9906 725.842 44.5848 725.842 43.7354 725.315L43.0032 724.876C37.79 721.625 28.4765 718.52 22.3261 718.022C18.8409 717.729 16 720.365 16 723.85V759.23C16 762.041 18.2844 764.677 21.0961 765.029L21.9454 765.146C28.3008 765.995 38.1122 769.217 43.7354 772.292L43.8526 772.351C44.6433 772.79 45.9027 772.79 46.6642 772.351C52.2874 769.246 62.1281 765.995 68.5128 765.146L69.4793 765.029C72.2909 764.677 74.5753 762.041 74.5753 759.23Z" stroke="#01B2FF" stroke-width="4" stroke-linecap="round" stroke-linejoin="round"/>
    <path d="M45.2877 726.281V770.213" stroke="#01B2FF" stroke-width="4" stroke-linecap="round" stroke-linejoin="round"/>
    <path d="M32.8404 735.068H26.2507" stroke="#01B2FF" stroke-width="4" stroke-linecap="round" stroke-linejoin="round"/>
    <path d="M35.037 743.854H26.2507" stroke="#01B2FF" stroke-width="4" stroke-linecap="round" stroke-linejoin="round"/>
    </g>
    <path d="M74.5753 759.23V723.88C74.5753 720.365 71.7051 717.759 68.2199 718.052H68.0442C61.8938 718.579 52.551 721.712 47.3378 724.993L46.8399 725.315C45.9906 725.842 44.5848 725.842 43.7354 725.315L43.0032 724.876C37.79 721.625 28.4765 718.52 22.3261 718.022C18.8409 717.729 16 720.365 16 723.85V759.23C16 762.041 18.2844 764.677 21.0961 765.029L21.9454 765.146C28.3008 765.995 38.1122 769.217 43.7354 772.292L43.8526 772.351C44.6433 772.79 45.9027 772.79 46.6642 772.351C52.2874 769.246 62.1281 765.995 68.5128 765.146L69.4793 765.029C72.2909 764.677 74.5753 762.041 74.5753 759.23Z" stroke="#01B2FF" stroke-width="4" stroke-linecap="round" stroke-linejoin="round"/>
    <path d="M45.2877 726.281V770.213" stroke="#01B2FF" stroke-width="4" stroke-linecap="round" stroke-linejoin="round"/>
    <path d="M32.8404 735.068H26.2507" stroke="#01B2FF" stroke-width="4" stroke-linecap="round" stroke-linejoin="round"/>
    <path d="M35.037 743.854H26.2507" stroke="#01B2FF" stroke-width="4" stroke-linecap="round" stroke-linejoin="round"/>
    <g filter="url(#filter1_f_13_239)">
    <path d="M31.7935 914.723C31.4031 914.723 31.0128 914.633 30.6525 914.423L17.1409 906.616C16.4504 906.226 16 905.475 16 904.664V889.051C16 888.24 16.4203 887.49 17.1409 887.099L30.6525 879.293C31.3431 878.902 32.2138 878.902 32.9044 879.293L46.4159 887.099C47.1065 887.49 47.5568 888.24 47.5568 889.051V893.765C47.5568 894.996 46.536 896.017 45.3049 896.017C44.0739 896.017 43.053 894.996 43.053 893.765V890.342L31.7935 883.827L20.5339 890.342V903.343L31.7935 909.859L44.1639 902.713C45.2449 902.082 46.626 902.472 47.2266 903.523C47.8571 904.604 47.4668 905.985 46.4159 906.586L32.9044 914.393C32.5741 914.603 32.1838 914.723 31.7935 914.723Z" fill="#01B2FF"/>
    <path d="M58.8164 930.305C58.4261 930.305 58.0357 930.215 57.6754 930.005L44.1639 922.198C43.4733 921.808 43.0229 921.057 43.0229 920.247V915.293C43.0229 914.062 44.0438 913.041 45.2748 913.041C46.5059 913.041 47.5268 914.062 47.5268 915.293V918.956L58.7864 925.471L70.046 918.956V905.955L58.7864 899.439L46.4158 906.585C45.3349 907.216 43.9537 906.825 43.3532 905.774C42.7227 904.694 43.113 903.312 44.1639 902.712L57.6754 894.905C58.366 894.515 59.2368 894.515 59.9273 894.905L73.4389 902.712C74.1295 903.102 74.5799 903.853 74.5799 904.664V920.277C74.5799 921.088 74.1595 921.838 73.4389 922.228L59.9273 930.035C59.5971 930.215 59.2067 930.305 58.8164 930.305Z" fill="#01B2FF"/>
    </g>
    <path d="M31.7935 914.723C31.4031 914.723 31.0128 914.633 30.6525 914.423L17.1409 906.616C16.4504 906.226 16 905.475 16 904.664V889.051C16 888.24 16.4203 887.49 17.1409 887.099L30.6525 879.293C31.3431 878.902 32.2138 878.902 32.9044 879.293L46.4159 887.099C47.1065 887.49 47.5568 888.24 47.5568 889.051V893.765C47.5568 894.996 46.536 896.017 45.3049 896.017C44.0739 896.017 43.053 894.996 43.053 893.765V890.342L31.7935 883.827L20.5339 890.342V903.343L31.7935 909.859L44.1639 902.713C45.2449 902.082 46.626 902.472 47.2266 903.523C47.8571 904.604 47.4668 905.985 46.4159 906.586L32.9044 914.393C32.5741 914.603 32.1838 914.723 31.7935 914.723Z" fill="#01B2FF"/>
    <path d="M58.8164 930.305C58.4261 930.305 58.0357 930.215 57.6754 930.005L44.1639 922.198C43.4733 921.808 43.0229 921.057 43.0229 920.247V915.293C43.0229 914.062 44.0438 913.041 45.2748 913.041C46.5059 913.041 47.5268 914.062 47.5268 915.293V918.956L58.7864 925.471L70.046 918.956V905.955L58.7864 899.439L46.4158 906.585C45.3349 907.216 43.9537 906.825 43.3532 905.774C42.7227 904.694 43.113 903.312 44.1639 902.712L57.6754 894.905C58.366 894.515 59.2368 894.515 59.9273 894.905L73.4389 902.712C74.1295 903.102 74.5799 903.853 74.5799 904.664V920.277C74.5799 921.088 74.1595 921.838 73.4389 922.228L59.9273 930.035C59.5971 930.215 59.2067 930.305 58.8164 930.305Z" fill="#01B2FF"/>
    <g filter="url(#filter2_f_13_239)">
    <path d="M61.2988 452.207C60.4534 452.207 59.608 451.988 58.8444 451.525L47.9085 445.034C46.7631 445.007 45.6177 444.925 44.5268 444.761C43.7905 444.652 43.1633 444.161 42.8906 443.452C42.6178 442.743 42.7542 441.979 43.2451 441.407C45.045 439.307 45.9722 436.798 45.9722 434.125C45.9722 427.526 40.1634 422.153 33.0182 422.153C30.3456 422.153 27.7821 422.89 25.6276 424.308C25.0277 424.69 24.2913 424.744 23.6368 424.444C23.0096 424.144 22.546 423.544 22.4642 422.835C22.3824 422.071 22.3278 421.308 22.3278 420.517C22.3278 406.99 34.0545 396 48.4539 396C62.8533 396 74.58 406.99 74.58 420.517C74.58 427.935 71.1438 434.753 65.0895 439.416L66.0168 446.834C66.2349 448.689 65.4168 450.434 63.8623 451.443C63.0987 451.934 62.1987 452.207 61.2988 452.207ZM48.4267 440.916C48.8085 440.889 49.1903 440.998 49.5175 441.216L60.9443 448.007C61.2442 448.198 61.4897 448.116 61.6533 448.007C61.7897 447.925 62.0078 447.707 61.9533 447.325L60.8897 438.707C60.8079 437.943 61.1352 437.207 61.7351 436.771C67.2985 432.871 70.4893 426.926 70.4893 420.462C70.4893 409.199 60.617 400.036 48.4539 400.036C36.7544 400.036 27.1548 408.545 26.4458 419.235C28.4911 418.444 30.7002 418.008 32.991 418.008C42.3997 418.008 50.0357 425.208 50.0357 434.071C50.0629 436.471 49.4902 438.789 48.4267 440.916Z" fill="#01B2FF"/>
    <path d="M25.0541 454.607C24.3451 454.607 23.6633 454.416 23.036 454.007C21.8088 453.216 21.1543 451.852 21.318 450.407L21.8634 446.207C18.1817 443.207 16 438.762 16 434.098C16 428.78 18.7817 423.817 23.4451 420.844C26.2541 419.017 29.5812 418.036 33.0447 418.036C42.4534 418.036 50.0894 425.235 50.0894 434.098C50.0894 437.698 48.7804 441.244 46.3805 444.053C43.2988 447.789 38.6899 449.97 33.6174 450.134L26.9631 454.088C26.3632 454.443 25.7086 454.607 25.0541 454.607ZM33.0174 422.126C30.3448 422.126 27.7812 422.863 25.6268 424.281C22.1361 426.517 20.0634 430.171 20.0634 434.098C20.0634 437.889 21.9179 441.353 25.1905 443.589C25.8178 444.025 26.145 444.762 26.0632 445.525L25.4632 450.189L31.9811 446.316C32.3083 446.125 32.6629 446.016 33.0174 446.016C37.0263 446.016 40.8171 444.298 43.217 441.38C45.0169 439.253 45.9714 436.744 45.9714 434.071C45.9714 427.499 40.1626 422.126 33.0174 422.126Z" fill="#01B2FF"/>
    </g>
    <path d="M61.2988 452.207C60.4534 452.207 59.608 451.988 58.8444 451.525L47.9085 445.034C46.7631 445.007 45.6177 444.925 44.5268 444.761C43.7905 444.652 43.1633 444.161 42.8906 443.452C42.6178 442.743 42.7542 441.979 43.2451 441.407C45.045 439.307 45.9722 436.798 45.9722 434.125C45.9722 427.526 40.1634 422.153 33.0182 422.153C30.3456 422.153 27.7821 422.89 25.6276 424.308C25.0277 424.69 24.2913 424.744 23.6368 424.444C23.0096 424.144 22.546 423.544 22.4642 422.835C22.3824 422.071 22.3278 421.308 22.3278 420.517C22.3278 406.99 34.0545 396 48.4539 396C62.8533 396 74.58 406.99 74.58 420.517C74.58 427.935 71.1438 434.753 65.0895 439.416L66.0168 446.834C66.2349 448.689 65.4168 450.434 63.8623 451.443C63.0987 451.934 62.1987 452.207 61.2988 452.207ZM48.4267 440.916C48.8085 440.889 49.1903 440.998 49.5175 441.216L60.9443 448.007C61.2442 448.198 61.4897 448.116 61.6533 448.007C61.7897 447.925 62.0078 447.707 61.9533 447.325L60.8897 438.707C60.8079 437.943 61.1352 437.207 61.7351 436.771C67.2985 432.871 70.4893 426.926 70.4893 420.462C70.4893 409.199 60.617 400.036 48.4539 400.036C36.7544 400.036 27.1548 408.545 26.4458 419.235C28.4911 418.444 30.7002 418.008 32.991 418.008C42.3997 418.008 50.0357 425.208 50.0357 434.071C50.0629 436.471 49.4902 438.789 48.4267 440.916Z" fill="#01B2FF"/>
    <path d="M25.0541 454.607C24.3451 454.607 23.6633 454.416 23.036 454.007C21.8088 453.216 21.1543 451.852 21.318 450.407L21.8634 446.207C18.1817 443.207 16 438.762 16 434.098C16 428.78 18.7817 423.817 23.4451 420.844C26.2541 419.017 29.5812 418.036 33.0447 418.036C42.4534 418.036 50.0894 425.235 50.0894 434.098C50.0894 437.698 48.7804 441.244 46.3805 444.053C43.2988 447.789 38.6899 449.97 33.6174 450.134L26.9631 454.088C26.3632 454.443 25.7086 454.607 25.0541 454.607ZM33.0174 422.126C30.3448 422.126 27.7812 422.863 25.6268 424.281C22.1361 426.517 20.0634 430.171 20.0634 434.098C20.0634 437.889 21.9179 441.353 25.1905 443.589C25.8178 444.025 26.145 444.762 26.0632 445.525L25.4632 450.189L31.9811 446.316C32.3083 446.125 32.6629 446.016 33.0174 446.016C37.0263 446.016 40.8171 444.298 43.217 441.38C45.0169 439.253 45.9714 436.744 45.9714 434.071C45.9714 427.499 40.1626 422.126 33.0174 422.126Z" fill="#01B2FF"/>
    <g filter="url(#filter3_f_13_239)">
    <path d="M46.3741 576.151H61.7513" stroke="#01B2FF" stroke-width="4" stroke-linecap="round" stroke-linejoin="round"/>
    <path d="M28.8287 576.151L31.0255 578.348L37.6157 571.758" stroke="#01B2FF" stroke-width="4" stroke-linecap="round" stroke-linejoin="round"/>
    <path d="M46.3741 596.654H61.7513" stroke="#01B2FF" stroke-width="4" stroke-linecap="round" stroke-linejoin="round"/>
    <path d="M28.8287 596.654L31.0255 598.851L37.6157 592.261" stroke="#01B2FF" stroke-width="4" stroke-linecap="round" stroke-linejoin="round"/>
    <path d="M36.503 614.58H54.077C68.722 614.58 74.58 608.722 74.58 594.077V576.503C74.58 561.858 68.722 556 54.077 556H36.503C21.858 556 16 561.858 16 576.503V594.077C16 608.722 21.858 614.58 36.503 614.58Z" stroke="#01B2FF" stroke-width="4" stroke-linecap="round" stroke-linejoin="round"/>
    </g>
    <path d="M46.3741 576.151H61.7513" stroke="#01B2FF" stroke-width="4" stroke-linecap="round" stroke-linejoin="round"/>
    <path d="M28.8287 576.151L31.0255 578.348L37.6157 571.758" stroke="#01B2FF" stroke-width="4" stroke-linecap="round" stroke-linejoin="round"/>
    <path d="M46.3741 596.654H61.7513" stroke="#01B2FF" stroke-width="4" stroke-linecap="round" stroke-linejoin="round"/>
    <path d="M28.8287 596.654L31.0255 598.851L37.6157 592.261" stroke="#01B2FF" stroke-width="4" stroke-linecap="round" stroke-linejoin="round"/>
    <path d="M36.503 614.58H54.077C68.722 614.58 74.58 608.722 74.58 594.077V576.503C74.58 561.858 68.722 556 54.077 556H36.503C21.858 556 16 561.858 16 576.503V594.077C16 608.722 21.858 614.58 36.503 614.58Z" stroke="#01B2FF" stroke-width="4" stroke-linecap="round" stroke-linejoin="round"/>
    <g filter="url(#filter4_f_13_239)">
    <path d="M45.2926 49.8788C48.8739 49.8788 51.7772 46.9755 51.7772 43.3942C51.7772 39.813 48.8739 36.9096 45.2926 36.9096C41.7114 36.9096 38.808 39.813 38.808 43.3942C38.808 46.9755 41.7114 49.8788 45.2926 49.8788Z" fill="#01B2FF"/>
    <path d="M67.0873 61.7831C66.6513 61.7831 66.2426 61.6469 65.8612 61.3745C64.9621 60.6933 64.7713 59.4127 65.4525 58.5136C68.7493 54.127 70.493 48.8957 70.493 43.392C70.493 37.8882 68.7493 32.6569 65.4525 28.2703C64.7713 27.3712 64.9621 26.0906 65.8612 25.4094C66.7603 24.7283 68.0409 24.919 68.722 25.8181C72.5637 30.9132 74.58 36.9891 74.58 43.392C74.58 49.7948 72.5637 55.8707 68.722 60.9658C68.3133 61.5107 67.7139 61.7831 67.0873 61.7831Z" fill="#01B2FF"/>
    <path d="M23.4927 61.7831C22.866 61.7831 22.2666 61.5107 21.8579 60.9658C18.0162 55.8707 16 49.7948 16 43.392C16 36.9891 18.0162 30.9132 21.8579 25.8181C22.5391 24.919 23.8196 24.7283 24.7188 25.4094C25.6179 26.0906 25.8086 27.3712 25.1275 28.2703C21.8307 32.6569 20.0869 37.8882 20.0869 43.392C20.0869 48.8957 21.8307 54.127 25.1275 58.5136C25.8086 59.4127 25.6179 60.6933 24.7188 61.3745C24.3646 61.6469 23.9286 61.7831 23.4927 61.7831Z" fill="#01B2FF"/>
    <path d="M58.3707 55.2398C57.9347 55.2398 57.526 55.1036 57.1446 54.8311C56.2455 54.1499 56.0547 52.8694 56.7359 51.9703C58.6159 49.4909 59.5967 46.521 59.5967 43.3877C59.5967 40.2544 58.6159 37.2846 56.7359 34.8052C56.0547 33.9061 56.2455 32.6255 57.1446 31.9443C58.0437 31.2632 59.3243 31.4539 60.0054 32.353C62.4031 35.5681 63.6837 39.3825 63.6837 43.3877C63.6837 47.3929 62.4031 51.2346 60.0054 54.4224C59.5967 54.9673 58.9973 55.2398 58.3707 55.2398Z" fill="#01B2FF"/>
    <path d="M32.2114 55.2398C31.5848 55.2398 30.9854 54.9673 30.5767 54.4224C28.179 51.2346 26.8984 47.3929 26.8984 43.3877C26.8984 39.3825 28.179 35.5408 30.5767 32.353C31.2578 31.4539 32.5384 31.2632 33.4375 31.9443C34.3366 32.6255 34.5274 33.9061 33.8462 34.8052C31.9662 37.2846 30.9854 40.2544 30.9854 43.3877C30.9854 46.521 31.9662 49.4909 33.8462 51.9703C34.5274 52.8694 34.3366 54.1499 33.4375 54.8311C33.0833 55.1036 32.6474 55.2398 32.2114 55.2398Z" fill="#01B2FF"/>
    </g>
    <path d="M45.2926 49.8788C48.8739 49.8788 51.7772 46.9755 51.7772 43.3942C51.7772 39.813 48.8739 36.9096 45.2926 36.9096C41.7114 36.9096 38.808 39.813 38.808 43.3942C38.808 46.9755 41.7114 49.8788 45.2926 49.8788Z" fill="#01B2FF"/>
    <path d="M67.0873 61.7831C66.6513 61.7831 66.2426 61.6469 65.8612 61.3745C64.9621 60.6933 64.7713 59.4127 65.4525 58.5136C68.7493 54.127 70.493 48.8957 70.493 43.392C70.493 37.8882 68.7493 32.6569 65.4525 28.2703C64.7713 27.3712 64.9621 26.0906 65.8612 25.4094C66.7603 24.7283 68.0409 24.919 68.722 25.8181C72.5637 30.9132 74.58 36.9891 74.58 43.392C74.58 49.7948 72.5637 55.8707 68.722 60.9658C68.3133 61.5107 67.7139 61.7831 67.0873 61.7831Z" fill="#01B2FF"/>
    <path d="M23.4927 61.7831C22.866 61.7831 22.2666 61.5107 21.8579 60.9658C18.0162 55.8707 16 49.7948 16 43.392C16 36.9891 18.0162 30.9132 21.8579 25.8181C22.5391 24.919 23.8196 24.7283 24.7188 25.4094C25.6179 26.0906 25.8086 27.3712 25.1275 28.2703C21.8307 32.6569 20.0869 37.8882 20.0869 43.392C20.0869 48.8957 21.8307 54.127 25.1275 58.5136C25.8086 59.4127 25.6179 60.6933 24.7188 61.3745C24.3646 61.6469 23.9286 61.7831 23.4927 61.7831Z" fill="#01B2FF"/>
    <path d="M58.3707 55.2398C57.9347 55.2398 57.526 55.1036 57.1446 54.8311C56.2455 54.1499 56.0547 52.8694 56.7359 51.9703C58.6159 49.4909 59.5967 46.521 59.5967 43.3877C59.5967 40.2544 58.6159 37.2846 56.7359 34.8052C56.0547 33.9061 56.2455 32.6255 57.1446 31.9443C58.0437 31.2632 59.3243 31.4539 60.0054 32.353C62.4031 35.5681 63.6837 39.3825 63.6837 43.3877C63.6837 47.3929 62.4031 51.2346 60.0054 54.4224C59.5967 54.9673 58.9973 55.2398 58.3707 55.2398Z" fill="#01B2FF"/>
    <path d="M32.2114 55.2398C31.5848 55.2398 30.9854 54.9673 30.5767 54.4224C28.179 51.2346 26.8984 47.3929 26.8984 43.3877C26.8984 39.3825 28.179 35.5408 30.5767 32.353C31.2578 31.4539 32.5384 31.2632 33.4375 31.9443C34.3366 32.6255 34.5274 33.9061 33.8462 34.8052C31.9662 37.2846 30.9854 40.2544 30.9854 43.3877C30.9854 46.521 31.9662 49.4909 33.8462 51.9703C34.5274 52.8694 34.3366 54.1499 33.4375 54.8311C33.0833 55.1036 32.6474 55.2398 32.2114 55.2398Z" fill="#01B2FF"/>
    <g filter="url(#filter5_f_13_239)">
    <path d="M62.9407 221.14C62.7647 221.111 62.5593 221.111 62.3832 221.14C58.3341 220.993 55.1066 217.678 55.1066 213.57C55.1066 209.374 58.4808 206 62.6766 206C66.8725 206 70.2467 209.404 70.2467 213.57C70.2174 217.678 66.9898 220.993 62.9407 221.14Z" stroke="#01B2FF" stroke-width="4" stroke-linecap="round" stroke-linejoin="round"/>
    <path d="M59.9166 242.5C63.9364 243.174 68.3669 242.47 71.4771 240.387C75.6142 237.629 75.6142 233.11 71.4771 230.352C68.3376 228.269 63.8483 227.565 59.8286 228.269" stroke="#01B2FF" stroke-width="4" stroke-linecap="round" stroke-linejoin="round"/>
    <path d="M27.6385 221.14C27.8145 221.111 28.0199 221.111 28.1959 221.14C32.245 220.993 35.4726 217.678 35.4726 213.57C35.4726 209.374 32.0983 206 27.9025 206C23.7067 206 20.3325 209.404 20.3325 213.57C20.3618 217.678 23.5893 220.993 27.6385 221.14Z" stroke="#01B2FF" stroke-width="4" stroke-linecap="round" stroke-linejoin="round"/>
    <path d="M30.6633 242.5C26.6436 243.174 22.213 242.47 19.1028 240.387C14.9657 237.629 14.9657 233.11 19.1028 230.352C22.2424 228.269 26.7316 227.565 30.7514 228.269" stroke="#01B2FF" stroke-width="4" stroke-linecap="round" stroke-linejoin="round"/>
    <path d="M45.3358 243.057C45.1597 243.028 44.9543 243.028 44.7783 243.057C40.7292 242.911 37.5016 239.595 37.5016 235.487C37.5016 231.292 40.8759 227.917 45.0717 227.917C49.2675 227.917 52.6418 231.321 52.6418 235.487C52.6124 239.595 49.3849 242.94 45.3358 243.057Z" stroke="#01B2FF" stroke-width="4" stroke-linecap="round" stroke-linejoin="round"/>
    <path d="M53.876 252.3C49.2108 249.19 41.494 249.19 36.7994 252.3C32.6623 255.058 32.6623 259.577 36.7994 262.335C41.494 265.474 49.1814 265.474 53.876 262.335" stroke="#01B2FF" stroke-width="4" stroke-linecap="round" stroke-linejoin="round"/>
    </g>
    <path d="M62.9407 221.14C62.7647 221.111 62.5593 221.111 62.3832 221.14C58.3341 220.993 55.1066 217.678 55.1066 213.57C55.1066 209.374 58.4808 206 62.6766 206C66.8725 206 70.2467 209.404 70.2467 213.57C70.2174 217.678 66.9898 220.993 62.9407 221.14Z" stroke="#01B2FF" stroke-width="4" stroke-linecap="round" stroke-linejoin="round"/>
    <path d="M59.9166 242.5C63.9364 243.174 68.3669 242.47 71.4771 240.387C75.6142 237.629 75.6142 233.11 71.4771 230.352C68.3376 228.269 63.8483 227.565 59.8286 228.269" stroke="#01B2FF" stroke-width="4" stroke-linecap="round" stroke-linejoin="round"/>
    <path d="M27.6385 221.14C27.8145 221.111 28.0199 221.111 28.1959 221.14C32.245 220.993 35.4726 217.678 35.4726 213.57C35.4726 209.374 32.0983 206 27.9025 206C23.7067 206 20.3325 209.404 20.3325 213.57C20.3618 217.678 23.5893 220.993 27.6385 221.14Z" stroke="#01B2FF" stroke-width="4" stroke-linecap="round" stroke-linejoin="round"/>
    <path d="M30.6633 242.5C26.6436 243.174 22.213 242.47 19.1028 240.387C14.9657 237.629 14.9657 233.11 19.1028 230.352C22.2424 228.269 26.7316 227.565 30.7514 228.269" stroke="#01B2FF" stroke-width="4" stroke-linecap="round" stroke-linejoin="round"/>
    <path d="M45.3358 243.057C45.1597 243.028 44.9543 243.028 44.7783 243.057C40.7292 242.911 37.5016 239.595 37.5016 235.487C37.5016 231.292 40.8759 227.917 45.0717 227.917C49.2675 227.917 52.6418 231.321 52.6418 235.487C52.6124 239.595 49.3849 242.94 45.3358 243.057Z" stroke="#01B2FF" stroke-width="4" stroke-linecap="round" stroke-linejoin="round"/>
    <path d="M53.876 252.3C49.2108 249.19 41.494 249.19 36.7994 252.3C32.6623 255.058 32.6623 259.577 36.7994 262.335C41.494 265.474 49.1814 265.474 53.876 262.335" stroke="#01B2FF" stroke-width="4" stroke-linecap="round" stroke-linejoin="round"/>
    <defs>
    <filter id="filter0_f_13_239" x="9" y="711" width="72.5753" height="68.6803" filterUnits="userSpaceOnUse" color-interpolation-filters="sRGB">
    <feFlood flood-opacity="0" result="BackgroundImageFix"/>
    <feBlend mode="normal" in="SourceGraphic" in2="BackgroundImageFix" result="shape"/>
    <feGaussianBlur stdDeviation="2.5" result="effect1_foregroundBlur_13_239"/>
    </filter>
    <filter id="filter1_f_13_239" x="11" y="874" width="68.5799" height="61.3054" filterUnits="userSpaceOnUse" color-interpolation-filters="sRGB">
    <feFlood flood-opacity="0" result="BackgroundImageFix"/>
    <feBlend mode="normal" in="SourceGraphic" in2="BackgroundImageFix" result="shape"/>
    <feGaussianBlur stdDeviation="2.5" result="effect1_foregroundBlur_13_239"/>
    </filter>
    <filter id="filter2_f_13_239" x="11" y="391" width="68.58" height="68.6066" filterUnits="userSpaceOnUse" color-interpolation-filters="sRGB">
    <feFlood flood-opacity="0" result="BackgroundImageFix"/>
    <feBlend mode="normal" in="SourceGraphic" in2="BackgroundImageFix" result="shape"/>
    <feGaussianBlur stdDeviation="2.5" result="effect1_foregroundBlur_13_239"/>
    </filter>
    <filter id="filter3_f_13_239" x="9" y="549" width="72.58" height="72.58" filterUnits="userSpaceOnUse" color-interpolation-filters="sRGB">
    <feFlood flood-opacity="0" result="BackgroundImageFix"/>
    <feBlend mode="normal" in="SourceGraphic" in2="BackgroundImageFix" result="shape"/>
    <feGaussianBlur stdDeviation="2.5" result="effect1_foregroundBlur_13_239"/>
    </filter>
    <filter id="filter4_f_13_239" x="11" y="20" width="68.58" height="46.7831" filterUnits="userSpaceOnUse" color-interpolation-filters="sRGB">
    <feFlood flood-opacity="0" result="BackgroundImageFix"/>
    <feBlend mode="normal" in="SourceGraphic" in2="BackgroundImageFix" result="shape"/>
    <feGaussianBlur stdDeviation="2.5" result="effect1_foregroundBlur_13_239"/>
    </filter>
    <filter id="filter5_f_13_239" x="9" y="199" width="72.58" height="72.6895" filterUnits="userSpaceOnUse" color-interpolation-filters="sRGB">
    <feFlood flood-opacity="0" result="BackgroundImageFix"/>
    <feBlend mode="normal" in="SourceGraphic" in2="BackgroundImageFix" result="shape"/>
    <feGaussianBlur stdDeviation="2.5" result="effect1_foregroundBlur_13_239"/>
    </filter>
    </defs>
    </svg>
    